<svg xmlns="http://www.w3.org/2000/svg" width="256" height="256" viewBox="0 0 256 256">
  <rect width="256" height="256" rx="48" fill="#1c2833"/>

  <!-- Bluetooth bind-rune (Hagall + Bjarkan), correct geometry -->
  <g transform="translate(52,128) scale(3.2)" fill="none" stroke="#41BDF5" stroke-width="2" stroke-linecap="round" stroke-linejoin="round">
    <path d="M 0 -10 L 0 10"/>
    <path d="M 0 -10 L 5.7 -4.3 L 0 0"/>
    <path d="M 0 10 L 5.7 4.3 L 0 0"/>
    <path d="M 0 0 L -5.7 -5.7"/>
    <path d="M 0 0 L -5.7 5.7"/>
  </g>

  <!-- Fidbox device -->
  <g transform="translate(96,64)">
    <rect x="0" y="0" width="140" height="128" rx="16" fill="#263238"/>
    <rect x="12" y="12" width="116" height="48" rx="10" fill="#8D6E63"/>
    <rect x="12" y="68" width="116" height="48" rx="10" fill="#546E7A"/>
    <path d="M 36 28 C 36 28 30 38 30 44 A 8 8 0 0 0 46 44 C 46 38 36 28 36 28 Z" fill="#41BDF5"/>
    <path d="M 100 84 C 100 84 94 94 94 100 A 8 8 0 0 0 110 100 C 110 94 100 84 100 84 Z" fill="#41BDF5"/>
    <g transform="translate(92,20)">
      <circle cx="8" cy="26" r="7" fill="#FF7043"/>
      <path d="M 8 2 L 8 19" stroke="#FF7043" stroke-width="6" stroke-linecap="round"/>
    </g>
    <g transform="translate(32,78)">
      <circle cx="8" cy="20" r="6" fill="#4FC3F7"/>
      <path d="M 8 2 L 8 14" stroke="#4FC3F7" stroke-width="5" stroke-linecap="round"/>
    </g>
  </g>
</svg>
